<?xml version="1.0" standalone="no"?>
<!DOCTYPE svg PUBLIC "-//W3C//DTD SVG 20010904//EN"
 "http://www.w3.org/TR/2001/REC-SVG-20010904/DTD/svg10.dtd">
<svg version="1.0" class="h-6 w-6 mr-1 text-white" xmlns="http://www.w3.org/2000/svg"
 width="640.000000pt" height="640.000000pt" viewBox="0 0 640.000000 640.000000"
 preserveAspectRatio="xMidYMid meet">
<metadata>
Created by potrace 1.16, written by Peter Selinger 2001-2019
</metadata>
<g transform="translate(0.000000,640.000000) scale(0.100000,-0.100000)"
fill="#000000" stroke="none">
<path d="M2311 6360 c-170 -26 -306 -132 -526 -410 -112 -142 -228 -266 -296
-316 -61 -45 -193 -109 -364 -179 -376 -152 -492 -247 -566 -464 -30 -86 -47
-199 -59 -401 -25 -422 -47 -490 -281 -865 -146 -233 -192 -357 -193 -515 0
-166 55 -303 232 -580 80 -123 157 -275 181 -355 28 -92 48 -223 56 -370 15
-300 41 -448 96 -557 82 -163 193 -245 519 -378 363 -148 433 -201 670 -495
241 -300 353 -386 536 -415 112 -18 247 3 546 84 211 58 372 70 529 40 46 -8
170 -38 274 -64 332 -86 443 -88 601 -10 109 53 199 139 373 354 131 162 249
286 316 333 50 35 222 117 350 168 245 96 389 182 465 277 104 131 139 261
160 593 25 414 41 466 253 817 188 311 217 385 217 553 0 57 -7 126 -15 160
-21 82 -87 217 -182 371 -220 356 -242 415 -263 729 -27 378 -46 490 -106 614
-68 138 -198 238 -444 340 -298 125 -343 146 -413 192 -98 64 -172 140 -338
345 -163 202 -261 297 -359 348 -144 76 -297 79 -560 11 -365 -95 -331 -89
-510 -89 l-165 0 -200 53 c-302 81 -419 98 -534 81z m1209 -365 c312 -36 601
-120 875 -255 297 -145 493 -287 735 -529 457 -458 723 -997 817 -1656 21
-148 23 -551 4 -700 -70 -547 -276 -1044 -605 -1460 -104 -131 -314 -341 -446
-445 -645 -511 -1462 -701 -2255 -524 -1024 228 -1839 1053 -2083 2109 -57
244 -67 342 -66 655 0 246 3 305 22 430 145 927 715 1714 1533 2117 285 140
619 236 919 263 149 13 409 11 550 -5z"/>
<path d="M2935 5875 c-312 -37 -601 -124 -870 -264 -181 -95 -250 -139 -410
-260 -100 -76 -115 -90 -260 -235 -222 -223 -363 -419 -505 -704 -100 -201
-159 -363 -210 -572 -79 -330 -98 -734 -48 -1065 17 -117 66 -324 104 -440 56
-171 87 -243 207 -480 87 -174 283 -432 462 -610 364 -361 778 -592 1255 -700
229 -52 310 -60 575 -59 259 0 368 12 585 64 553 131 1048 447 1426 910 62 75
177 240 216 308 62 109 128 237 153 298 16 38 32 74 36 79 15 20 100 289 124
389 59 252 70 351 70 646 0 172 -5 307 -13 360 -90 600 -309 1070 -704 1511
-142 159 -409 376 -583 475 -11 6 -45 26 -75 44 -183 109 -532 237 -751 275
-269 47 -547 57 -784 30z m665 -45 c363 -54 721 -193 1035 -402 72 -47 139
-94 150 -104 11 -11 47 -41 80 -68 60 -49 252 -239 310 -306 129 -149 262
-355 365 -565 180 -367 263 -702 277 -1115 18 -569 -136 -1112 -452 -1590
-169 -256 -378 -478 -616 -656 -370 -275 -788 -441 -1245 -495 -133 -16 -414
-16 -549 0 -969 111 -1796 765 -2144 1692 -84 226 -138 459 -162 696 -15 155
-6 541 16 678 110 689 448 1278 973 1698 334 267 648 416 1087 515 28 7 104
18 170 27 66 8 136 16 155 19 81 10 420 -4 550 -24z"/>
<path d="M3255 5615 c-176 -29 -298 -77 -355 -141 -29 -34 -32 -42 -28 -86 6
-61 31 -89 114 -128 141 -68 395 -97 688 -80 93 5 170 11 173 13 6 7 -8 35
-21 40 -7 3 -55 0 -107 -5 -114 -12 -336 -4 -441 16 -91 17 -180 57 -208 93
-13 16 -20 41 -20 67 0 34 6 48 33 73 81 79 226 106 531 102 197 -3 220 -2
230 13 5 9 7 21 2 25 -15 15 -494 13 -591 -2z"/>
<path d="M2350 5474 c-197 -52 -490 -275 -566 -429 -47 -98 -33 -184 37 -221
42 -21 157 -18 232 7 239 79 511 311 557 473 40 143 -76 219 -260 170z m88
-84 c107 -48 89 -177 -42 -304 -190 -184 -434 -253 -510 -144 -22 30 -20 104
3 155 62 135 327 311 471 312 19 0 54 -8 78 -19z"/>
<path d="M4127 5289 c-59 -93 -105 -174 -102 -178 3 -5 24 -20 48 -34 23 -13
152 -88 286 -166 227 -133 246 -142 258 -125 11 16 10 20 -14 34 -60 36 -203
119 -310 181 -62 35 -113 68 -113 72 0 14 69 117 79 117 5 0 98 -52 206 -116
187 -108 230 -125 212 -82 -3 7 -93 64 -201 126 l-196 114 20 36 c48 85 25 89
261 -47 199 -114 239 -131 239 -99 0 11 -387 243 -524 314 l-41 22 -108 -169z"/>
<path d="M2985 5059 c-153 -19 -381 -87 -525 -157 -414 -199 -763 -578 -922
-1002 -76 -204 -127 -442 -128 -597 l0 -53 135 0 c161 0 147 -14 165 166 12
110 21 146 35 132 3 -3 10 -86 16 -184 5 -98 12 -180 13 -182 2 -2 7 21 11 50
9 72 15 90 28 85 6 -2 16 -23 23 -48 l11 -44 7 60 c18 150 22 170 30 170 12 0
21 -32 36 -127 14 -83 23 -91 35 -31 14 75 43 77 46 3 1 -27 4 -21 13 28 6 35
16 63 21 64 6 1 17 -29 25 -67 18 -82 22 -84 151 -82 l94 2 3 464 c1 293 6
469 12 476 7 8 57 15 133 19 217 12 416 56 542 118 64 32 142 97 181 149 48
66 57 65 113 -13 51 -71 174 -148 300 -188 100 -31 222 -51 391 -64 l155 -11
5 -470 5 -470 122 -3 121 -3 6 28 c3 15 10 73 16 128 6 55 13 110 16 123 10
49 22 7 28 -95 4 -60 9 -144 13 -188 l7 -80 10 69 c6 38 17 71 24 74 6 2 12
-1 12 -7 0 -5 5 -22 12 -38 10 -25 12 -18 23 75 18 151 34 151 55 1 7 -49 16
-89 20 -89 3 0 12 23 19 50 16 64 40 68 42 8 2 -40 3 -38 12 20 13 84 31 80
48 -10 l14 -73 128 -3 127 -3 0 45 c0 25 -7 98 -15 163 -108 838 -735 1489
-1546 1608 -115 16 -357 18 -474 4z"/>
<path d="M1329 4707 c-113 -129 -224 -292 -279 -410 -66 -140 -74 -221 -25
-253 53 -34 129 20 260 183 43 54 104 129 134 166 96 120 162 162 199 125 49
-49 -40 -250 -198 -443 -82 -101 -119 -129 -153 -116 -22 9 -29 7 -42 -12 -15
-21 -14 -23 21 -55 45 -39 42 -41 144 88 183 230 320 499 320 627 0 84 -76 98
-161 28 -35 -29 -135 -145 -219 -255 -123 -162 -164 -200 -210 -200 -31 0 -40
15 -40 67 0 76 127 282 234 381 38 35 49 41 65 32 29 -15 40 -12 52 14 10 20
7 28 -17 55 -15 17 -30 31 -33 30 -3 0 -27 -23 -52 -52z"/>
<path d="M4870 4719 c-112 -22 -206 -41 -207 -43 -6 -6 51 -96 61 -96 18 0
308 61 331 70 34 13 38 1 12 -34 -13 -17 -58 -93 -101 -168 l-76 -138 25 -40
c27 -43 13 -38 260 -104 72 -19 157 -40 190 -47 71 -14 86 -24 54 -34 -21 -7
-289 -133 -297 -140 -2 -2 11 -26 28 -54 l31 -51 185 93 c101 50 184 95 184
100 0 4 -18 36 -41 71 l-40 63 -142 38 c-78 21 -184 47 -234 59 -51 11 -93 24
-93 29 0 5 13 27 28 50 16 23 57 96 91 162 l63 120 -43 68 c-23 37 -47 67 -53
66 -6 -1 -103 -19 -216 -40z"/>
<path d="M3195 4201 c-35 -68 -164 -143 -310 -181 -44 -12 -144 -26 -223 -33
l-143 -11 3 -576 3 -577 44 -88 c38 -77 60 -105 160 -205 68 -68 153 -141 206
-176 113 -76 269 -164 291 -164 44 0 310 167 434 272 142 121 244 268 269 390
8 35 10 231 9 588 l-3 535 -135 12 c-74 6 -167 18 -206 26 -146 31 -278 104
-334 185 -28 40 -45 41 -65 3z m-80 -181 c32 -12 41 -35 22 -55 -11 -10 -36
-15 -82 -15 -112 0 -215 -73 -215 -153 0 -35 36 -106 58 -114 9 -4 36 -22 58
-40 25 -20 71 -42 110 -54 108 -32 151 -30 198 11 64 57 60 160 -10 246 -50
60 -54 97 -13 101 50 6 82 -47 109 -181 21 -103 -6 -188 -72 -222 -26 -14 -58
-18 -147 -18 l-114 -1 -39 -36 c-67 -61 -54 -125 32 -169 93 -48 158 -33 225
52 64 81 107 108 174 108 37 0 71 -7 96 -20 22 -11 55 -20 75 -20 58 0 104
-18 138 -54 38 -41 40 -56 10 -83 -45 -40 -152 -60 -205 -38 -19 8 -32 19 -28
25 3 5 1 10 -4 10 -16 0 -51 38 -51 55 0 8 12 26 28 40 23 21 25 27 12 35 -8
5 -33 10 -55 10 -50 0 -88 -26 -149 -101 -25 -31 -60 -64 -79 -73 -69 -32
-158 -14 -251 51 -64 45 -80 115 -40 178 7 11 15 36 19 55 5 32 3 37 -30 59
-19 13 -35 27 -35 31 0 4 -16 34 -35 66 -38 63 -44 104 -21 157 16 38 66 84
116 105 19 8 41 19 49 26 15 12 77 33 103 35 9 1 28 -3 43 -9z m32 -865 l98
-46 79 37 c123 58 217 73 245 40 5 -6 11 -24 13 -41 3 -27 6 -30 33 -26 17 3
46 5 65 5 l35 1 3 -262 c2 -207 0 -263 -10 -264 -7 -1 -63 0 -125 1 -128 2
-210 -12 -269 -46 -55 -32 -89 -30 -164 9 -63 32 -64 32 -218 33 -119 1 -156
5 -163 15 -5 8 -9 123 -8 256 1 192 4 244 15 253 10 9 27 9 64 1 28 -6 52 -11
54 -11 2 0 6 18 10 40 3 21 14 44 24 50 33 21 117 3 219 -45z"/>
<path d="M2960 2948 l0 -215 103 -13 c135 -16 132 -16 135 -7 1 4 2 87 2 185
l0 179 -80 37 c-44 21 -98 40 -120 43 l-40 6 0 -215z"/>
<path d="M3435 3141 c-27 -10 -74 -30 -102 -45 l-53 -26 0 -185 c0 -142 3
-185 13 -184 6 0 61 8 121 17 l109 17 1 210 c1 240 5 230 -89 196z"/>
<path d="M3615 3071 l-30 -6 -3 -193 -2 -192 -63 0 c-87 0 -184 -17 -234 -41
-38 -18 -44 -19 -65 -5 -36 23 -103 37 -212 44 l-101 7 -3 185 c-3 197 -3 200
-55 200 l-27 0 2 -210 3 -210 120 -4 c128 -4 202 -18 250 -48 39 -24 54 -23
112 7 56 29 166 47 273 44 41 -1 76 1 78 5 6 16 1 426 -5 425 -5 -1 -21 -4
-38 -8z"/>
<path d="M1005 3616 c-15 -10 -17 -21 -12 -57 l7 -44 -33 38 -34 39 -53 -56
c-35 -36 -67 -60 -92 -68 -91 -27 9 -61 195 -67 26 -1 27 -2 27 -61 0 -51 -3
-60 -17 -59 -29 0 -107 33 -105 44 1 6 23 12 49 15 57 6 68 33 16 38 -76 7
-134 -28 -117 -71 7 -18 81 -57 108 -57 14 0 17 -5 11 -22 -19 -61 -17 -84 10
-117 l28 -32 -21 -22 c-32 -34 -35 -67 -12 -106 25 -39 33 -37 21 5 -8 30 4
84 20 84 5 0 9 -15 9 -34 0 -19 3 -41 6 -50 12 -32 24 -15 24 37 l1 52 20 -24
c11 -13 17 -32 14 -42 -3 -11 -7 -29 -11 -41 l-5 -23 20 24 c28 31 28 88 0
117 l-22 23 28 32 c27 33 29 56 10 117 -6 17 -3 22 11 22 10 0 37 9 60 21 69
33 70 81 2 99 -52 15 -103 9 -103 -10 0 -10 14 -17 47 -20 26 -3 50 -9 54 -13
8 -8 -52 -35 -97 -44 l-29 -5 0 55 c0 31 4 58 8 61 5 3 44 7 88 11 110 7 140
14 159 35 15 17 14 18 -21 25 -28 5 -53 22 -97 68 l-60 61 -18 -25 c-33 -42
-41 -50 -45 -46 -3 2 1 16 7 30 14 30 8 52 -19 66 -14 7 -24 7 -37 -3z"/>
<path d="M5376 3605 c-19 -19 -20 -38 -6 -66 17 -30 -2 -22 -32 13 l-27 33
-53 -51 c-58 -57 -86 -74 -117 -74 -23 0 -28 -15 -8 -27 32 -21 88 -33 154
-33 101 0 103 -1 103 -71 0 -32 -4 -59 -10 -59 -20 0 -120 42 -120 50 0 5 21
10 47 12 36 2 49 7 51 21 3 14 -4 17 -50 17 -125 0 -131 -79 -10 -119 l41 -14
-15 -29 c-19 -37 -11 -78 21 -108 l24 -23 -24 -29 c-32 -38 -32 -79 1 -115 20
-22 24 -23 19 -8 -16 43 -17 67 -5 91 21 38 30 28 30 -31 0 -30 5 -55 10 -55
6 0 10 22 10 49 0 57 11 71 30 36 12 -23 11 -47 -5 -90 -5 -15 -1 -14 19 8 31
34 34 75 6 110 -25 31 -25 39 -1 61 28 26 35 69 17 104 l-15 29 41 13 c84 24
113 71 66 104 -29 21 -128 22 -128 2 0 -17 22 -26 66 -26 19 0 34 -4 34 -9 0
-8 -98 -51 -115 -51 -3 0 -5 27 -5 59 0 70 2 71 106 71 41 0 84 5 97 12 12 6
28 14 36 18 24 11 24 30 1 30 -32 0 -84 35 -120 81 -38 47 -54 49 -75 9 -9
-16 -22 -30 -30 -30 -13 0 -13 3 -3 20 9 13 9 27 2 47 -11 33 -35 40 -58 18z"/>
<path d="M1727 3330 c-3 -8 -8 -33 -9 -55 l-3 -40 -152 -3 -153 -3 0 -87 c0
-94 19 -245 45 -357 146 -634 603 -1145 1203 -1345 182 -61 290 -80 487 -87
323 -11 582 44 858 183 273 137 526 361 705 625 91 135 203 384 248 555 31
118 64 337 64 431 l0 72 -137 3 -137 3 -10 35 c-9 33 -11 29 -19 -52 -12 -112
-31 -119 -42 -15 l-8 72 -15 -50 c-9 -27 -17 -52 -19 -54 -10 -14 -24 24 -35
94 -11 76 -12 78 -19 40 -3 -22 -10 -66 -14 -97 -9 -77 -23 -79 -40 -4 -9 42
-16 27 -34 -76 -9 -51 -20 -93 -26 -93 -11 0 -22 105 -24 234 -1 90 -12 101
-21 23 l-5 -47 -135 -5 -135 -5 -6 -240 c-6 -271 -10 -290 -83 -418 -51 -88
-110 -162 -205 -255 -178 -173 -575 -426 -642 -409 -42 11 -270 146 -387 230
-270 192 -441 401 -492 602 -17 66 -20 111 -20 281 l0 203 -127 3 -128 3 -3
28 c-6 53 -20 26 -27 -53 -9 -105 -29 -109 -42 -7 l-9 72 -15 -49 c-9 -28 -21
-52 -26 -53 -10 -4 -33 97 -33 140 0 9 -4 17 -9 17 -5 0 -12 -38 -16 -85 -8
-97 -26 -113 -46 -42 l-13 42 -9 -45 c-5 -25 -14 -71 -20 -103 -7 -32 -16 -58
-22 -58 -6 0 -13 54 -17 123 -10 175 -13 195 -21 178z m632 -1060 c18 -35 47
-84 64 -109 33 -49 216 -236 223 -229 2 3 -3 19 -11 36 -19 37 -11 132 11 132
17 0 74 -58 85 -87 15 -40 10 -71 -13 -87 -12 -8 -25 -13 -30 -10 -4 3 -8 2
-8 -3 0 -8 122 -83 135 -83 4 0 -3 12 -14 26 -16 20 -21 41 -21 85 0 70 11 75
64 29 58 -52 66 -122 16 -147 -14 -7 -22 -13 -18 -13 4 0 37 -11 74 -25 l65
-25 -25 31 c-25 29 -30 42 -39 102 -5 30 5 33 50 16 50 -18 83 -59 83 -100 0
-26 -5 -39 -17 -44 -16 -7 -15 -9 7 -15 14 -5 55 -8 93 -9 37 -1 67 -5 67 -11
0 -6 -37 -10 -90 -10 -87 0 -90 -1 -80 -20 20 -37 -16 -82 -84 -104 -23 -8
-123 11 -131 24 -9 15 73 97 103 105 24 6 20 9 -48 37 -195 80 -400 263 -504
452 -30 54 -76 185 -75 213 0 10 8 -7 18 -37 10 -31 32 -84 50 -120z m1847
118 c-37 -232 -362 -572 -611 -639 l-40 -11 27 -12 c34 -14 108 -83 108 -100
0 -19 -100 -37 -142 -25 -51 14 -82 51 -75 89 l7 30 -85 0 c-50 0 -85 4 -85
10 0 6 24 10 53 10 28 0 69 3 90 6 36 6 37 7 17 21 -40 28 -13 101 50 133 62
32 73 28 65 -22 -9 -51 -21 -76 -49 -100 -17 -15 -9 -14 48 7 37 14 71 25 75
25 3 0 -5 6 -19 13 -22 11 -25 19 -24 62 0 44 4 52 39 82 45 39 60 41 69 11
15 -59 2 -107 -38 -141 -28 -24 51 14 108 52 l40 26 -30 5 c-27 5 -29 9 -32
53 -3 45 0 51 36 88 22 21 44 39 50 39 23 0 28 -95 7 -144 -12 -27 10 -13 84
57 113 105 228 285 247 384 9 48 18 41 10 -9z m-1826 -257 c38 -27 57 -67 44
-88 -17 -27 -75 -28 -107 -3 -36 28 -73 100 -57 110 19 12 94 0 120 -19z
m1870 9 c0 -26 -43 -91 -70 -105 -86 -44 -138 19 -71 86 26 25 37 29 85 29 32
0 56 -4 56 -10z m-1761 -165 c30 -15 41 -33 41 -65 0 -36 -63 -52 -107 -27
-22 12 -73 74 -73 88 0 21 102 24 139 4z m1639 9 c31 -9 28 -30 -11 -69 -57
-57 -139 -59 -145 -4 -6 55 77 94 156 73z m-1470 -134 c24 -15 32 -27 32 -49
0 -65 -93 -82 -172 -32 -25 16 -48 33 -52 39 -8 13 13 29 60 46 55 20 94 19
132 -4z m1333 -1 c27 -12 49 -27 49 -33 0 -22 -94 -76 -132 -76 -97 0 -134 75
-55 114 43 21 79 20 138 -5z m-1164 -94 c13 -9 23 -25 23 -36 0 -27 -45 -67
-84 -74 -44 -9 -146 30 -146 55 0 9 78 63 105 72 27 9 74 1 102 -17z m1008
-15 c25 -17 45 -37 45 -44 0 -20 -79 -51 -128 -50 -34 1 -50 7 -73 31 -26 25
-29 33 -20 56 11 30 59 49 104 42 15 -3 48 -18 72 -35z"/>
<path d="M4549 1540 c-57 -44 -104 -84 -104 -90 0 -20 158 -210 169 -203 32
18 216 167 216 174 0 19 -24 7 -100 -51 -43 -33 -83 -60 -89 -60 -16 0 -66 71
-55 78 101 67 168 132 137 132 -3 0 -39 -25 -79 -55 -40 -30 -78 -55 -83 -55
-9 0 -51 52 -51 62 0 2 36 31 80 63 44 32 80 62 80 66 0 24 -27 10 -121 -61z"/>
<path d="M1931 1491 c-28 -38 -54 -82 -57 -98 -22 -109 227 -265 312 -195 12
9 42 47 68 83 l46 67 -25 16 c-13 9 -26 16 -29 16 -2 0 -28 -32 -56 -70 -72
-98 -96 -108 -170 -70 -46 24 -90 77 -90 111 0 14 24 57 55 99 54 75 54 75 33
93 -11 9 -24 17 -28 17 -5 0 -31 -31 -59 -69z"/>
<path d="M4167 1338 c-16 -12 -13 -22 43 -131 34 -64 63 -117 66 -117 5 0 247
121 253 126 3 3 0 9 -5 14 -7 7 -40 -5 -98 -35 -48 -25 -93 -45 -99 -45 -7 0
-35 44 -63 98 -27 53 -57 98 -65 100 -8 1 -22 -3 -32 -10z"/>
<path d="M2307 1174 c-32 -64 -55 -120 -50 -124 4 -4 17 -11 29 -14 19 -6 26
5 65 89 24 52 46 95 49 95 3 0 35 -68 70 -151 53 -124 70 -154 94 -166 17 -9
32 -11 37 -6 5 5 34 58 64 119 50 100 54 110 38 122 -9 6 -23 12 -29 12 -7 0
-34 -44 -60 -97 l-46 -97 -23 59 c-12 33 -43 104 -68 157 -35 75 -52 100 -72
108 -14 5 -29 10 -33 10 -4 0 -33 -52 -65 -116z"/>
<path d="M3807 1177 c-15 -5 -27 -13 -27 -19 0 -16 92 -228 102 -234 5 -3 59
16 121 41 144 61 151 65 140 76 -6 6 -47 -6 -107 -31 -54 -23 -101 -39 -104
-35 -3 3 -26 52 -51 108 -46 103 -46 104 -74 94z"/>
<path d="M2777 1123 c-2 -4 -12 -64 -22 -132 -19 -132 -16 -144 30 -139 17 3
22 18 39 131 10 70 17 130 15 132 -10 9 -57 16 -62 8z"/>
<path d="M3467 1111 c-26 -5 -34 -20 -87 -150 -33 -80 -58 -147 -56 -149 3 -2
18 -1 34 3 23 5 32 14 42 46 7 21 18 43 24 48 6 5 49 15 95 24 l83 15 38 -34
c36 -32 82 -45 94 -26 6 10 -208 226 -226 228 -7 1 -26 -1 -41 -5z"/>
<path d="M2890 1085 c0 -6 22 -49 50 -95 27 -46 59 -103 72 -127 21 -40 26
-43 63 -43 39 0 41 2 133 124 50 67 92 126 92 129 0 4 -15 7 -32 7 -30 0 -39
-9 -102 -98 -37 -53 -73 -104 -78 -112 -5 -8 -11 -10 -14 -5 -2 6 -30 57 -62
115 -51 93 -61 105 -89 111 -23 4 -33 3 -33 -6z"/>
<path d="M2510 721 l0 -51 144 0 c86 0 147 4 151 10 3 6 21 10 40 10 19 0 37
-4 40 -10 6 -10 105 -14 105 -4 0 3 -16 26 -36 50 l-36 44 -74 0 -73 0 -32
-45 c-20 -28 -38 -44 -47 -40 -7 3 -29 5 -47 5 -32 0 -34 2 -37 38 -3 37 -3
37 -50 40 l-48 3 0 -50z"/>
<path d="M3177 763 c-4 -3 -7 -26 -7 -50 l0 -43 49 0 c34 0 51 4 55 15 4 10
20 15 50 15 59 0 98 15 94 37 -2 9 -14 20 -28 24 -33 9 -205 11 -213 2z"/>
<path d="M3476 723 l-35 -48 46 -3 c25 -2 51 2 56 7 6 6 25 11 42 11 17 0 36
-5 42 -11 5 -5 31 -9 56 -7 l46 3 -35 48 -34 47 -75 0 -75 0 -34 -47z"/>
</g>
</svg>
